<?xml version="1.0" ?><svg id="Settings" style="enable-background:new 0 0 32 32;" version="1.1" viewBox="0 0 32 32" xml:space="preserve" xmlns="http://www.w3.org/2000/svg" xmlns:xlink="http://www.w3.org/1999/xlink"><style type="text/css">
	.st0{fill:#94A6B0;}
	.st1{fill:#4A5A63;}
</style><g><path class="st0" d="M25.332,13.512c-0.213-0.817-0.542-1.611-0.977-2.36c-0.164-0.282-0.181-0.627-0.043-0.923l0.916-1.977   l-1.481-1.482l-1.977,0.916c-0.296,0.137-0.64,0.122-0.923-0.042c-0.751-0.436-1.545-0.764-2.359-0.977   c-0.317-0.083-0.574-0.316-0.687-0.624L17.052,4h-2.104l-0.75,2.044c-0.113,0.308-0.37,0.541-0.687,0.624   c-0.814,0.212-1.608,0.541-2.36,0.977c-0.281,0.164-0.627,0.18-0.922,0.042L8.253,6.771L6.771,8.253l0.917,1.976   c0.137,0.296,0.122,0.641-0.042,0.923c-0.436,0.751-0.765,1.545-0.977,2.36c-0.083,0.317-0.316,0.574-0.624,0.687L4,14.948v2.104   l2.044,0.75c0.308,0.112,0.541,0.369,0.624,0.687c0.212,0.814,0.541,1.608,0.977,2.359c0.164,0.282,0.18,0.627,0.042,0.923   l-0.917,1.977l1.482,1.481l1.977-0.916c0.296-0.138,0.641-0.122,0.923,0.043c0.749,0.435,1.542,0.764,2.36,0.977   c0.317,0.083,0.574,0.315,0.687,0.623L14.948,28h2.104l0.75-2.045c0.112-0.308,0.369-0.54,0.686-0.623   c0.818-0.214,1.612-0.542,2.359-0.977c0.284-0.163,0.629-0.181,0.924-0.043l1.977,0.916l1.481-1.481l-0.916-1.977   c-0.138-0.297-0.121-0.642,0.043-0.924c0.435-0.747,0.763-1.541,0.977-2.359c0.083-0.316,0.315-0.573,0.623-0.686L28,17.052v-2.104   l-2.045-0.75C25.647,14.086,25.415,13.83,25.332,13.512z M16,21.36c-2.956,0-5.36-2.404-5.36-5.36c0-2.956,2.404-5.36,5.36-5.36   c2.956,0,5.36,2.404,5.36,5.36C21.36,18.956,18.956,21.36,16,21.36z"/><path class="st1" d="M29.345,13.311l-2.224-0.815c-0.202-0.646-0.464-1.277-0.781-1.884l0.997-2.151   c0.177-0.38,0.097-0.831-0.2-1.127l-2.47-2.47c-0.296-0.298-0.747-0.377-1.128-0.2l-2.15,0.997   c-0.609-0.318-1.24-0.579-1.885-0.781l-0.815-2.223C18.544,2.262,18.17,2,17.75,2h-3.5c-0.419,0-0.794,0.262-0.939,0.656   l-0.815,2.223c-0.644,0.202-1.275,0.463-1.884,0.781L8.46,4.663c-0.38-0.177-0.831-0.097-1.127,0.2l-2.47,2.47   C4.566,7.63,4.486,8.08,4.663,8.461l0.998,2.15c-0.318,0.609-0.58,1.24-0.781,1.884l-2.224,0.815C2.262,13.456,2,13.831,2,14.25   v3.5c0,0.42,0.262,0.794,0.656,0.938l2.223,0.815c0.202,0.646,0.463,1.275,0.781,1.885l-0.998,2.15   c-0.177,0.381-0.097,0.831,0.2,1.128l2.47,2.47c0.297,0.297,0.748,0.377,1.127,0.2l2.151-0.997   c0.607,0.317,1.238,0.579,1.884,0.781l0.815,2.224C13.456,29.738,13.831,30,14.25,30h3.5c0.42,0,0.794-0.262,0.938-0.655   l0.815-2.224c0.646-0.202,1.277-0.464,1.885-0.781l2.15,0.997c0.381,0.177,0.832,0.097,1.128-0.2l2.47-2.47   c0.297-0.297,0.377-0.747,0.2-1.128l-0.997-2.15c0.317-0.607,0.579-1.238,0.781-1.885l2.224-0.815C29.738,18.544,30,18.17,30,17.75   v-3.5C30,13.831,29.738,13.456,29.345,13.311z M28,17.052l-2.045,0.75c-0.308,0.112-0.54,0.369-0.623,0.686   c-0.214,0.818-0.542,1.612-0.977,2.359c-0.164,0.282-0.181,0.627-0.043,0.924l0.916,1.977l-1.481,1.481l-1.977-0.916   c-0.295-0.138-0.64-0.12-0.924,0.043c-0.747,0.435-1.541,0.763-2.359,0.977c-0.316,0.083-0.573,0.315-0.686,0.623L17.052,28h-2.104   l-0.75-2.045c-0.113-0.308-0.369-0.54-0.687-0.623c-0.817-0.213-1.611-0.542-2.36-0.977c-0.282-0.165-0.627-0.181-0.923-0.043   l-1.977,0.916l-1.482-1.481l0.917-1.977c0.137-0.296,0.122-0.641-0.042-0.923c-0.436-0.751-0.765-1.545-0.977-2.359   c-0.083-0.317-0.316-0.574-0.624-0.687L4,17.052v-2.104l2.044-0.75c0.308-0.113,0.541-0.37,0.624-0.687   c0.212-0.814,0.541-1.608,0.977-2.36c0.164-0.282,0.18-0.626,0.042-0.923L6.771,8.253l1.482-1.482l1.976,0.916   c0.295,0.138,0.641,0.122,0.922-0.042c0.752-0.436,1.546-0.765,2.36-0.977c0.317-0.083,0.574-0.316,0.687-0.624L14.948,4h2.104   l0.75,2.044c0.112,0.308,0.369,0.541,0.687,0.624c0.814,0.212,1.608,0.541,2.359,0.977c0.283,0.164,0.627,0.179,0.923,0.042   l1.977-0.916l1.481,1.482l-0.916,1.977c-0.138,0.296-0.121,0.641,0.043,0.923c0.435,0.749,0.764,1.542,0.977,2.36   c0.083,0.317,0.315,0.574,0.623,0.687L28,14.948V17.052z"/><path class="st1" d="M16,10.64c-2.956,0-5.36,2.404-5.36,5.36c0,2.956,2.404,5.36,5.36,5.36c2.956,0,5.36-2.404,5.36-5.36   C21.36,13.044,18.956,10.64,16,10.64z M16,19.36c-1.853,0-3.36-1.508-3.36-3.36s1.507-3.36,3.36-3.36s3.36,1.507,3.36,3.36   S17.853,19.36,16,19.36z"/></g></svg>